<?xml version="1.0" encoding="UTF-8" standalone="no"?>
<!-- Created with Inkscape (http://www.inkscape.org/) -->

<svg
   width="1000"
   height="1000"
   viewBox="0 0 1000 1000"
   version="1.1"
   id="svg1"
   xml:space="preserve"
   inkscape:version="1.4 (1:1.4+202410161351+e7c3feb100)"
   sodipodi:docname="logo.svg"
   inkscape:export-filename="logo-512.png"
   inkscape:export-xdpi="19.2"
   inkscape:export-ydpi="19.2"
   xmlns:inkscape="http://www.inkscape.org/namespaces/inkscape"
   xmlns:sodipodi="http://sodipodi.sourceforge.net/DTD/sodipodi-0.dtd"
   xmlns:xlink="http://www.w3.org/1999/xlink"
   xmlns="http://www.w3.org/2000/svg"
   xmlns:svg="http://www.w3.org/2000/svg"
   xmlns:rdf="http://www.w3.org/1999/02/22-rdf-syntax-ns#"
   xmlns:cc="http://creativecommons.org/ns#"
   xmlns:dc="http://purl.org/dc/elements/1.1/"><title
     id="title4">Open Business Alliance logo</title><sodipodi:namedview
     id="namedview1"
     pagecolor="#ffffff"
     bordercolor="#111111"
     borderopacity="1"
     inkscape:showpageshadow="0"
     inkscape:pageopacity="0"
     inkscape:pagecheckerboard="1"
     inkscape:deskcolor="#d1d1d1"
     inkscape:document-units="px"
     showgrid="true"
     inkscape:zoom="0.661"
     inkscape:cx="279.9"
     inkscape:cy="510.6"
     inkscape:window-width="1920"
     inkscape:window-height="997"
     inkscape:window-x="0"
     inkscape:window-y="1080"
     inkscape:window-maximized="1"
     inkscape:current-layer="svg1"
     showguides="true"><sodipodi:guide
       position="0,1000"
       orientation="0,1000"
       id="guide1"
       inkscape:locked="false" /><sodipodi:guide
       position="1000,1000"
       orientation="1000,0"
       id="guide2"
       inkscape:locked="false" /><sodipodi:guide
       position="1000,0"
       orientation="0,-1000"
       id="guide3"
       inkscape:locked="false" /><sodipodi:guide
       position="0,0"
       orientation="-1000,0"
       id="guide4"
       inkscape:locked="false" /><inkscape:grid
       id="grid4"
       units="px"
       originx="0"
       originy="0"
       spacingx="10"
       spacingy="10"
       empcolor="#0099e5"
       empopacity="0.302"
       color="#0099e5"
       opacity="0.149"
       empspacing="10"
       enabled="true"
       visible="true" /><sodipodi:guide
       position="250,810"
       orientation="1,0"
       id="guide61"
       inkscape:locked="false" /><sodipodi:guide
       position="750,840"
       orientation="1,0"
       id="guide62"
       inkscape:locked="false" /><sodipodi:guide
       position="380,900"
       orientation="0,-1"
       id="guide63"
       inkscape:locked="false" /><sodipodi:guide
       position="100,880"
       orientation="1,0"
       id="guide64"
       inkscape:locked="false" /><sodipodi:guide
       position="900,850"
       orientation="1,0"
       id="guide65"
       inkscape:locked="false" /><sodipodi:guide
       position="460,100"
       orientation="0,-1"
       id="guide66"
       inkscape:locked="false" /></sodipodi:namedview><defs
     id="defs1"><linearGradient
       id="linearGradient48"
       inkscape:collect="always"
       inkscape:label="Rainbow"><stop
         style="stop-color:#ff0000;stop-opacity:1;"
         offset="0"
         id="stop48" /><stop
         style="stop-color:#ffa500;stop-opacity:1;"
         offset="0.2"
         id="stop50" /><stop
         style="stop-color:#ffff00;stop-opacity:1;"
         offset="0.4"
         id="stop51" /><stop
         style="stop-color:#00ff00;stop-opacity:1;"
         offset="0.6"
         id="stop52" /><stop
         style="stop-color:#0000ff;stop-opacity:1;"
         offset="0.8"
         id="stop53" /><stop
         style="stop-color:#ff00ff;stop-opacity:1;"
         offset="1"
         id="stop49" /></linearGradient><linearGradient
       inkscape:collect="always"
       xlink:href="#linearGradient48"
       id="linearGradient49"
       x1="182.5"
       y1="500"
       x2="317.5"
       y2="500"
       gradientUnits="userSpaceOnUse" /><linearGradient
       inkscape:collect="always"
       xlink:href="#linearGradient48"
       id="linearGradient55"
       x1="112.5"
       y1="480"
       x2="247.5"
       y2="480"
       gradientUnits="userSpaceOnUse" /><linearGradient
       inkscape:collect="always"
       xlink:href="#linearGradient48"
       id="linearGradient57"
       x1="252.5"
       y1="480"
       x2="387.5"
       y2="480"
       gradientUnits="userSpaceOnUse" /><linearGradient
       inkscape:collect="always"
       xlink:href="#linearGradient48"
       id="linearGradient59"
       x1="612.5"
       y1="480"
       x2="747.5"
       y2="480"
       gradientUnits="userSpaceOnUse" /><linearGradient
       inkscape:collect="always"
       xlink:href="#linearGradient48"
       id="linearGradient60"
       x1="752.5"
       y1="480"
       x2="887.5"
       y2="480"
       gradientUnits="userSpaceOnUse" /><linearGradient
       inkscape:collect="always"
       xlink:href="#linearGradient48"
       id="linearGradient61"
       x1="682.5"
       y1="500"
       x2="817.5"
       y2="500"
       gradientUnits="userSpaceOnUse" /></defs><g
     id="g58"
     inkscape:label="Buildings"
     style="display:inline"><path
       style="fill:#c0c0c0;fill-opacity:1;stroke:#000000;stroke-width:8;stroke-linecap:square;stroke-linejoin:miter;stroke-dasharray:none;stroke-dashoffset:0;stroke-opacity:1"
       d="M 300,900 V 610 h 80 V 150 h 240 v 460 h 80 v 290 z"
       id="path46"
       sodipodi:nodetypes="ccccccccc"
       inkscape:label="BuildingCore" /><path
       style="fill:#0000ff;fill-opacity:1;stroke:#000000;stroke-width:8;stroke-linecap:square;stroke-linejoin:miter;stroke-dasharray:none;stroke-dashoffset:0;stroke-opacity:1"
       d="M 380,600 V 900"
       id="path47"
       inkscape:label="BuildingLeft" /><path
       style="fill:#0000ff;fill-opacity:1;stroke:#000000;stroke-width:8;stroke-linecap:square;stroke-linejoin:miter;stroke-dasharray:none;stroke-dashoffset:0;stroke-opacity:1"
       d="M 620,600 V 900"
       id="path48"
       inkscape:label="BuildingRight" /><path
       style="fill:#0000ff;fill-opacity:1;stroke:#000000;stroke-width:8;stroke-linecap:square;stroke-linejoin:miter;stroke-dasharray:none;stroke-dashoffset:0;stroke-opacity:1"
       d="M 460,750 V 150"
       id="path50"
       sodipodi:nodetypes="cc"
       inkscape:label="WindowLeft" /><path
       style="fill:#0000ff;fill-opacity:1;stroke:#000000;stroke-width:8;stroke-linecap:square;stroke-linejoin:miter;stroke-dasharray:none;stroke-dashoffset:0;stroke-opacity:1"
       d="M 540,150 V 750"
       id="path51"
       sodipodi:nodetypes="cc"
       inkscape:label="WindowRight" /><path
       style="fill:#0000ff;fill-opacity:1;stroke:#000000;stroke-width:8;stroke-linecap:square;stroke-linejoin:miter;stroke-dasharray:none;stroke-dashoffset:0;stroke-opacity:1"
       d="M 620,270 H 380"
       id="path52"
       inkscape:label="WindowLintel1" /><path
       style="fill:#0000ff;fill-opacity:1;stroke:#000000;stroke-width:8;stroke-linecap:square;stroke-linejoin:miter;stroke-dasharray:none;stroke-dashoffset:0;stroke-opacity:1"
       d="M 620,390 H 380"
       id="path53"
       inkscape:label="WindowLintel2" /><path
       style="fill:#0000ff;fill-opacity:1;stroke:#000000;stroke-width:8;stroke-linecap:square;stroke-linejoin:miter;stroke-dasharray:none;stroke-dashoffset:0;stroke-opacity:1"
       d="M 620,510 H 380"
       id="path54"
       inkscape:label="WindowLintel3" /><path
       style="fill:#0000ff;fill-opacity:1;stroke:#000000;stroke-width:8;stroke-linecap:square;stroke-linejoin:miter;stroke-dasharray:none;stroke-dashoffset:0;stroke-opacity:1"
       d="M 620,630 H 380"
       id="path55"
       inkscape:label="WindowLintel4" /><path
       style="fill:#0000ff;fill-opacity:1;stroke:#000000;stroke-width:8;stroke-linecap:square;stroke-linejoin:miter;stroke-dasharray:none;stroke-dashoffset:0;stroke-opacity:1"
       d="M 620,750 H 380"
       id="path56"
       inkscape:label="Lintel" /><path
       style="fill:#0000ff;fill-opacity:1;stroke:#000000;stroke-width:8;stroke-linecap:square;stroke-linejoin:miter;stroke-dasharray:none;stroke-dashoffset:0;stroke-opacity:1"
       d="M 420,750 V 900"
       id="path57"
       inkscape:label="DoorLeft" /><path
       style="fill:#0000ff;fill-opacity:1;stroke:#000000;stroke-width:8;stroke-linecap:square;stroke-linejoin:miter;stroke-dasharray:none;stroke-dashoffset:0;stroke-opacity:1"
       d="M 580,750 V 900"
       id="path58"
       inkscape:label="DoorRight" /><rect
       style="fill:none;fill-opacity:1;stroke:#000000;stroke-width:7.48331;stroke-linecap:square;stroke-linejoin:miter;stroke-dasharray:none;stroke-dashoffset:0;stroke-opacity:1"
       id="rect58"
       width="40"
       height="70"
       x="320"
       y="630"
       inkscape:label="Window1" /><rect
       style="fill:none;fill-opacity:1;stroke:#000000;stroke-width:7.48331;stroke-linecap:square;stroke-linejoin:miter;stroke-dasharray:none;stroke-dashoffset:0;stroke-opacity:1"
       id="rect58-31"
       width="40"
       height="70"
       x="640"
       y="630"
       inkscape:label="Window2" /><rect
       style="fill:none;fill-opacity:1;stroke:#000000;stroke-width:7.48331;stroke-linecap:square;stroke-linejoin:miter;stroke-dasharray:none;stroke-dashoffset:0;stroke-opacity:1"
       id="rect58-3"
       width="40"
       height="70"
       x="320"
       y="720"
       inkscape:label="Window3" /><rect
       style="fill:none;fill-opacity:1;stroke:#000000;stroke-width:7.48331;stroke-linecap:square;stroke-linejoin:miter;stroke-dasharray:none;stroke-dashoffset:0;stroke-opacity:1"
       id="rect58-3-4"
       width="40"
       height="70"
       x="640"
       y="720"
       inkscape:label="Window4" /><rect
       style="fill:none;fill-opacity:1;stroke:#000000;stroke-width:7.48331;stroke-linecap:square;stroke-linejoin:miter;stroke-dasharray:none;stroke-dashoffset:0;stroke-opacity:1"
       id="rect58-6"
       width="40"
       height="70"
       x="320"
       y="810"
       inkscape:label="Window5" /><rect
       style="fill:none;fill-opacity:1;stroke:#000000;stroke-width:7.48331;stroke-linecap:square;stroke-linejoin:miter;stroke-dasharray:none;stroke-dashoffset:0;stroke-opacity:1"
       id="rect58-6-9"
       width="40"
       height="70"
       x="640"
       y="810"
       inkscape:label="Window6" /></g><path
     style="display:inline;fill:#ffd700;fill-opacity:1;stroke:#000000;stroke-width:10;stroke-linecap:square;stroke-dasharray:none"
     d="m 110,650 c 93.3,13.3 186.7,13.3 280,0 -93.3,-13.3 -186.7,-13.3 -280,0 z"
     id="path71"
     sodipodi:nodetypes="ccc"
     inkscape:label="B-Bowl-Back-L" /><path
     style="display:inline;fill:#ffd700;fill-opacity:1;stroke:#000000;stroke-width:10;stroke-linecap:square;stroke-dasharray:none"
     d="m 610,650 c 93.3,13.3 186.7,13.3 280,0 -93.3,-13.3 -186.7,-13.3 -280,0 z"
     id="path71-2"
     sodipodi:nodetypes="ccc"
     inkscape:label="B-Bowl-Back-R" /><path
     style="fill:#ffd700;fill-opacity:1;stroke:#000000;stroke-width:10;stroke-linecap:square;stroke-dasharray:none"
     d="M 250,640 V 190"
     id="path72"
     inkscape:label="B-Chain-L-C" /><path
     style="fill:#ffd700;fill-opacity:1;stroke:#000000;stroke-width:10;stroke-linecap:square;stroke-dasharray:none"
     d="M 750,640 V 190"
     id="path72-9"
     inkscape:label="B-Chain-R-C" /><path
     style="fill:url(#linearGradient55);fill-opacity:1;stroke:#000000;stroke-width:10;stroke-linecap:round;stroke-linejoin:round;stroke-dasharray:none;stroke-dashoffset:0;stroke-opacity:1"
     d="m 115.3,484.8 c -4,-12.2 8.2,-117.5 12,-125.3 8.1,-8.2 32.5,-8.2 40.5,-12.4 0,0 2.8,-4.4 4.2,-8 0.4,-1.2 0.4,-2.6 0,-4 -0.8,-1.6 -2,-2.2 -4.2,-4.2 -3.6,-3 -6.6,-7.4 -8,-12 -2,-6.3 -2,-13.7 0,-20.1 1.4,-4.7 4.4,-8.8 8,-12.2 2.2,-2 5.2,-3.4 8,-4.2 2.8,-0.6 5.7,-0.6 8.3,0 2.8,0.8 5.8,2.2 8,4.2 3.6,3.4 6.6,7.6 8,12.2 1.8,6.3 1.8,13.8 0,20.1 -1.4,4.6 -4.4,9 -8,12 -2.2,2 -3.4,2.6 -4,4.2 -0.6,1.4 -0.6,2.8 0,4 1.4,3.6 4,8 4,8 8,4.2 32.6,4.2 40.3,12.4 4,7.8 16.4,113.1 12.2,125.3 -4,4 -8.2,4 -12.2,0 -3.8,-12.2 -15.9,-85.2 -15.9,-85.2 0,0 -4,20.5 -4,24.5 0,3.8 8.2,44.1 8.2,44.1 0,0 -8.2,194.2 -12.4,206.4 -4,4.6 -16.2,4.6 -20.2,0 -4,-12.3 -4,-117.4 -8,-125.4 -4.3,8 -4.3,113.2 -8.1,125.4 -4.2,4.6 -16.4,4.6 -20.4,0 -4,-12.3 -12,-206.4 -12,-206.4 0,0 8,-40.3 8,-44.1 0,-4 -4,-24.5 -4,-24.5 0,0 -11.9,73 -16.1,85.2 -3.8,4 -8,4 -12.2,0 z"
     id="path14-1"
     sodipodi:nodetypes="cccssssssssssssscccccccccccccccccc"
     inkscape:label="P-L-L" /><path
     style="fill:url(#linearGradient57);fill-opacity:1;stroke:#000000;stroke-width:10;stroke-linecap:round;stroke-linejoin:round;stroke-dasharray:none;stroke-dashoffset:0;stroke-opacity:1"
     d="m 255.3,484.8 c -4,-12.2 8.2,-117.4 12,-125.3 8.1,-8.2 32.5,-8.2 40.5,-12.4 0,0 2.8,-4.4 4.2,-8 0.4,-1.2 0.4,-2.6 0,-4 -0.8,-1.6 -2,-2.2 -4.2,-4.2 -3.6,-3 -6.6,-7.4 -8,-12 -2,-6.3 -2,-13.7 0,-20.1 1.4,-4.6 4.4,-8.8 8,-12.2 2.2,-2 5.2,-3.4 8,-4.2 2.8,-0.6 5.7,-0.6 8.3,0 2.8,0.8 5.8,2.2 8,4.2 3.6,3.4 6.6,7.6 8,12.2 1.8,6.4 1.8,13.8 0,20.1 -1.4,4.6 -4.4,9 -8,12 -2.2,2 -3.4,2.6 -4,4.2 -0.6,1.4 -0.6,2.8 0,4 1.4,3.6 4,8 4,8 8,4.2 32.6,4.2 40.3,12.4 4,7.9 16.4,113.1 12.2,125.3 -4,4 -8.2,4 -12.2,0 -3.8,-12.2 -15.9,-85.2 -15.9,-85.2 0,0 -4,20.5 -4,24.5 0,3.8 8.2,44.1 8.2,44.1 0,0 -8.2,194.2 -12.4,206.4 -4,4.6 -16.2,4.6 -20.2,0 -4,-12.2 -4,-117.4 -8,-125.4 -4.3,8 -4.3,113.2 -8.1,125.4 -4.2,4.6 -16.4,4.6 -20.4,0 -4,-12.2 -12,-206.4 -12,-206.4 0,0 8,-40.3 8,-44.1 0,-4 -4,-24.5 -4,-24.5 0,0 -11.9,73 -16.1,85.2 -3.8,4 -8,4 -12.2,0 z"
     id="path14-6"
     sodipodi:nodetypes="cccssssssssssssscccccccccccccccccc"
     inkscape:label="P-L-R" /><path
     style="fill:url(#linearGradient49);fill-opacity:1;stroke:#000000;stroke-width:10;stroke-linecap:round;stroke-linejoin:round;stroke-dasharray:none;stroke-dashoffset:0;stroke-opacity:1"
     d="m 185.3,504.8 c -4,-12.2 8.2,-117.4 12,-125.3 8.1,-8.2 32.5,-8.2 40.5,-12.4 0,0 2.8,-4.4 4.2,-8 0.4,-1.2 0.4,-2.6 0,-4 -0.8,-1.6 -2,-2.2 -4.2,-4.2 -3.6,-3 -6.6,-7.4 -8,-12 -2,-6.3 -2,-13.7 0,-20.1 1.4,-4.6 4.4,-8.8 8,-12.2 2.2,-2 5.2,-3.4 8,-4.2 2.8,-0.6 5.7,-0.6 8.3,0 2.8,0.8 5.8,2.2 8,4.2 3.6,3.4 6.6,7.6 8,12.2 1.8,6.4 1.8,13.8 0,20.1 -1.4,4.6 -4.4,9 -8,12 -2.2,2 -3.4,2.6 -4,4.2 -0.6,1.4 -0.6,2.8 0,4 1.4,3.6 4,8 4,8 8,4.2 32.6,4.2 40.3,12.4 4,7.9 16.4,113.1 12.2,125.3 -4,4 -8.2,4 -12.2,0 -3.8,-12.2 -15.9,-85.2 -15.9,-85.2 0,0 -4,20.5 -4,24.5 0,3.8 8.2,44.1 8.2,44.1 0,0 -8.2,194.2 -12.4,206.4 -4,4.6 -16.2,4.6 -20.2,0 -4,-12.2 -4,-117.4 -8,-125.4 -4.3,8 -4.3,113.2 -8.1,125.4 -4.2,4.6 -16.4,4.6 -20.4,0 -4,-12.2 -12,-206.4 -12,-206.4 0,0 8,-40.3 8,-44.1 0,-4 -4,-24.5 -4,-24.5 0,0 -11.9,73 -16.1,85.2 -3.8,4 -8,4 -12.2,0 z"
     id="path14"
     sodipodi:nodetypes="cccssssssssssssscccccccccccccccccc"
     inkscape:label="P-L-C" /><path
     style="fill:url(#linearGradient59);fill-opacity:1;stroke:#000000;stroke-width:10;stroke-linecap:round;stroke-linejoin:round;stroke-dasharray:none;stroke-dashoffset:0;stroke-opacity:1"
     d="m 615.3,484.8 c -4,-12.2 8.2,-117.5 12,-125.3 8.1,-8.2 32.5,-8.2 40.5,-12.4 0,0 2.8,-4.4 4.2,-8 0.4,-1.2 0.4,-2.6 0,-4 -0.8,-1.6 -2,-2.2 -4.2,-4.2 -3.6,-3 -6.6,-7.4 -8,-12 -2,-6.3 -2,-13.7 0,-20.1 1.4,-4.7 4.4,-8.8 8,-12.2 2.2,-2 5.2,-3.4 8,-4.2 2.8,-0.6 5.7,-0.6 8.3,0 2.8,0.8 5.8,2.2 8,4.2 3.6,3.4 6.6,7.6 8,12.2 1.8,6.3 1.8,13.8 0,20.1 -1.4,4.6 -4.4,9 -8,12 -2.2,2 -3.4,2.6 -4,4.2 -0.6,1.4 -0.6,2.8 0,4 1.4,3.6 4,8 4,8 8,4.2 32.6,4.2 40.3,12.4 4,7.8 16.4,113.1 12.2,125.3 -4,4 -8.2,4 -12.2,0 -3.8,-12.2 -15.9,-85.2 -15.9,-85.2 0,0 -4,20.5 -4,24.5 0,3.8 8.2,44.1 8.2,44.1 0,0 -8.2,194.2 -12.4,206.4 -4,4.6 -16.2,4.6 -20.2,0 -4,-12.3 -4,-117.4 -8,-125.4 -4.3,8 -4.3,113.2 -8.1,125.4 -4.2,4.6 -16.4,4.6 -20.4,0 -4,-12.3 -12,-206.4 -12,-206.4 0,0 8,-40.3 8,-44.1 0,-4 -4,-24.5 -4,-24.5 0,0 -11.9,73 -16.1,85.2 -3.8,4 -8,4 -12.2,0 z"
     id="path14-1-5"
     sodipodi:nodetypes="cccssssssssssssscccccccccccccccccc"
     inkscape:label="P-R-L" /><path
     style="fill:url(#linearGradient60);fill-opacity:1;stroke:#000000;stroke-width:10;stroke-linecap:round;stroke-linejoin:round;stroke-dasharray:none;stroke-dashoffset:0;stroke-opacity:1"
     d="m 755.3,484.8 c -4,-12.2 8.2,-117.4 12,-125.3 8.1,-8.2 32.5,-8.2 40.5,-12.4 0,0 2.8,-4.4 4.2,-8 0.4,-1.2 0.4,-2.6 0,-4 -0.8,-1.6 -2,-2.2 -4.2,-4.2 -3.6,-3 -6.6,-7.4 -8,-12 -2,-6.3 -2,-13.7 0,-20.1 1.4,-4.6 4.4,-8.8 8,-12.2 2.2,-2 5.2,-3.4 8,-4.2 2.8,-0.6 5.7,-0.6 8.3,0 2.8,0.8 5.8,2.2 8,4.2 3.6,3.4 6.6,7.6 8,12.2 1.8,6.4 1.8,13.8 0,20.1 -1.4,4.6 -4.4,9 -8,12 -2.2,2 -3.4,2.6 -4,4.2 -0.6,1.4 -0.6,2.8 0,4 1.4,3.6 4,8 4,8 8,4.2 32.6,4.2 40.3,12.4 4,7.9 16.4,113.1 12.2,125.3 -4,4 -8.2,4 -12.2,0 -3.8,-12.2 -15.9,-85.2 -15.9,-85.2 0,0 -4,20.5 -4,24.5 0,3.8 8.2,44.1 8.2,44.1 0,0 -8.2,194.2 -12.4,206.4 -4,4.6 -16.2,4.6 -20.2,0 -4,-12.2 -4,-117.4 -8,-125.4 -4.3,8 -4.3,113.2 -8.1,125.4 -4.2,4.6 -16.4,4.6 -20.4,0 -4,-12.2 -12,-206.4 -12,-206.4 0,0 8,-40.3 8,-44.1 0,-4 -4,-24.5 -4,-24.5 0,0 -11.9,73 -16.1,85.2 -3.8,4 -8,4 -12.2,0 z"
     id="path14-6-9"
     sodipodi:nodetypes="cccssssssssssssscccccccccccccccccc"
     inkscape:label="P-R-R" /><path
     style="fill:url(#linearGradient61);fill-opacity:1;stroke:#000000;stroke-width:10;stroke-linecap:round;stroke-linejoin:round;stroke-dasharray:none;stroke-dashoffset:0;stroke-opacity:1"
     d="m 685.3,504.8 c -4,-12.2 8.2,-117.4 12,-125.3 8.1,-8.2 32.5,-8.2 40.5,-12.4 0,0 2.8,-4.4 4.2,-8 0.4,-1.2 0.4,-2.6 0,-4 -0.8,-1.6 -2,-2.2 -4.2,-4.2 -3.6,-3 -6.6,-7.4 -8,-12 -2,-6.3 -2,-13.7 0,-20.1 1.4,-4.6 4.4,-8.8 8,-12.2 2.2,-2 5.2,-3.4 8,-4.2 2.8,-0.6 5.7,-0.6 8.3,0 2.8,0.8 5.8,2.2 8,4.2 3.6,3.4 6.6,7.6 8,12.2 1.8,6.4 1.8,13.8 0,20.1 -1.4,4.6 -4.4,9 -8,12 -2.2,2 -3.4,2.6 -4,4.2 -0.6,1.4 -0.6,2.8 0,4 1.4,3.6 4,8 4,8 8,4.2 32.6,4.2 40.3,12.4 4,7.9 16.4,113.1 12.2,125.3 -4,4 -8.2,4 -12.2,0 -3.8,-12.2 -15.9,-85.2 -15.9,-85.2 0,0 -4,20.5 -4,24.5 0,3.8 8.2,44.1 8.2,44.1 0,0 -8.2,194.2 -12.4,206.4 -4,4.6 -16.2,4.6 -20.2,0 -4,-12.2 -4,-117.4 -8,-125.4 -4.3,8 -4.3,113.2 -8.1,125.4 -4.2,4.6 -16.4,4.6 -20.4,0 -4,-12.2 -12,-206.4 -12,-206.4 0,0 8,-40.3 8,-44.1 0,-4 -4,-24.5 -4,-24.5 0,0 -11.9,73 -16.1,85.2 -3.8,4 -8,4 -12.2,0 z"
     id="path14-2"
     sodipodi:nodetypes="cccssssssssssssscccccccccccccccccc"
     inkscape:label="P-R-C" /><path
     style="display:inline;fill:#80c0ff;fill-opacity:1;stroke:#000000;stroke-width:10;stroke-linecap:square;stroke-dasharray:none"
     d="m 480,100 -30,100 c 33.3,13.3 66.7,13.3 100,0 L 520,100 Z"
     id="path68"
     sodipodi:nodetypes="ccccc"
     inkscape:label="B-Scale" /><path
     style="display:inline;fill:#ffd700;fill-opacity:1;stroke:#000000;stroke-width:10;stroke-linecap:square;stroke-dasharray:none"
     d="M 250,150 H 750 V 130 L 600,100 H 400 l -150,30 z"
     id="path67"
     inkscape:label="B-Arm" /><circle
     style="display:inline;fill:#ffd700;fill-opacity:1;stroke:#000000;stroke-width:10;stroke-linecap:square;stroke-dasharray:none"
     id="path66"
     cx="250"
     cy="150"
     r="40"
     inkscape:label="B-Ball-L" /><circle
     style="display:inline;fill:#ffd700;fill-opacity:1;stroke:#000000;stroke-width:10;stroke-linecap:square;stroke-dasharray:none"
     id="path66-7"
     cx="750"
     cy="150"
     r="40"
     inkscape:label="B-Ball-R" /><path
     style="display:inline;fill:#ffd700;fill-opacity:1;stroke:#000000;stroke-width:10;stroke-linecap:square;stroke-dasharray:none"
     d="m 490,150 v 20 h -10 l 20,30 20,-30 h -10 v -20 z"
     id="path69"
     inkscape:label="B-Indicator" /><path
     style="display:inline;fill:#ffd700;fill-opacity:1;stroke:#000000;stroke-width:10;stroke-linecap:square;stroke-dasharray:none"
     d="m 110,650 c 100,66.7 180,66.7 280,0 -100,13.3 -180,13.3 -280,0 z"
     id="path70"
     sodipodi:nodetypes="ccc"
     inkscape:label="B-Bowl-L" /><path
     style="display:inline;fill:#ffd700;fill-opacity:1;stroke:#000000;stroke-width:10;stroke-linecap:square;stroke-dasharray:none"
     d="m 610,650 c 100,66.7 180,66.7 280,0 -100,13.3 -180,13.3 -280,0 z"
     id="path70-3"
     sodipodi:nodetypes="ccc"
     inkscape:label="B-Bowl-R" /><metadata
     id="metadata4"><rdf:RDF><cc:Work
         rdf:about=""><dc:title>Open Business Alliance logo</dc:title><dc:date>2025-02-03</dc:date><dc:creator><cc:Agent><dc:title>Tony M. Bishop</dc:title></cc:Agent></dc:creator><dc:rights><cc:Agent><dc:title>Copyright © 2025 Tony M. Bishop, all rights reserved.</dc:title></cc:Agent></dc:rights><dc:publisher><cc:Agent><dc:title>Open Business Alliance</dc:title></cc:Agent></dc:publisher></cc:Work></rdf:RDF></metadata><path
     style="fill:#ffd700;fill-opacity:1;stroke:#000000;stroke-width:10;stroke-linecap:square;stroke-dasharray:none"
     d="M 149.3,654.8 250,190"
     id="path73"
     inkscape:label="B-Chain-L-L" /><path
     style="fill:#ffd700;fill-opacity:1;stroke:#000000;stroke-width:10;stroke-linecap:square;stroke-dasharray:none"
     d="M 350.7,654.8 250,190"
     id="path74"
     inkscape:label="B-Chain-L-R" /><path
     style="fill:#ffd700;fill-opacity:1;stroke:#000000;stroke-width:10;stroke-linecap:square;stroke-dasharray:none"
     d="M 649.3,654.8 750,190"
     id="path73-1"
     inkscape:label="B-Chain-L-L" /><path
     style="fill:#ffd700;fill-opacity:1;stroke:#000000;stroke-width:10;stroke-linecap:square;stroke-dasharray:none"
     d="M 850.7,654.8 750,190"
     id="path74-9"
     inkscape:label="B-Chain-R-R" /></svg>
